<?xml version="1.0" encoding="UTF-8" standalone="no"?>
<!-- Created with Inkscape (http://www.inkscape.org/) -->

<svg
   width="43.929592mm"
   height="50.831615mm"
   viewBox="0 0 43.929592 50.831615"
   version="1.1"
   id="svg5"
   inkscape:version="1.1.2 (0a00cf5339, 2022-02-04)"
   sodipodi:docname="logo.svg"
   xmlns:inkscape="http://www.inkscape.org/namespaces/inkscape"
   xmlns:sodipodi="http://sodipodi.sourceforge.net/DTD/sodipodi-0.dtd"
   xmlns="http://www.w3.org/2000/svg"
   xmlns:svg="http://www.w3.org/2000/svg">
  <sodipodi:namedview
     id="namedview7"
     pagecolor="#ffffff"
     bordercolor="#000000"
     borderopacity="0.25"
     inkscape:pageshadow="2"
     inkscape:pageopacity="0.0"
     inkscape:pagecheckerboard="0"
     inkscape:document-units="mm"
     showgrid="false"
     showguides="true"
     inkscape:guide-bbox="true"
     inkscape:zoom="2.8789653"
     inkscape:cx="108.71962"
     inkscape:cy="86.142059"
     inkscape:window-width="1920"
     inkscape:window-height="1131"
     inkscape:window-x="0"
     inkscape:window-y="32"
     inkscape:window-maximized="1"
     inkscape:current-layer="layer1"
     fit-margin-top="0"
     fit-margin-left="0"
     fit-margin-right="0"
     fit-margin-bottom="0">
    <sodipodi:guide
       position="43.391661,13.019141"
       orientation="0,-1"
       id="guide92090" />
    <sodipodi:guide
       position="43.391671,37.81249"
       orientation="0,-1"
       id="guide92092" />
    <sodipodi:guide
       position="21.964802,0.62246165"
       orientation="1,0"
       id="guide52890" />
    <sodipodi:guide
       position="21.964812,25.415831"
       orientation="0,-1"
       id="guide53127" />
    <sodipodi:guide
       position="0.53794259,37.81249"
       orientation="1,0"
       id="guide53162" />
    <sodipodi:guide
       position="43.391671,37.81249"
       orientation="1,0"
       id="guide53164" />
  </sodipodi:namedview>
  <defs
     id="defs2">
    <inkscape:perspective
       sodipodi:type="inkscape:persp3d"
       inkscape:vp_x="0 : 143.6312 : 1"
       inkscape:vp_y="0 : 999.99988 : 0"
       inkscape:vp_z="1500 : 143.6312 : 1"
       inkscape:persp3d-origin="749.99996 : -150.41423 : 1"
       id="perspective4362" />
    <clipPath
       id="clp12">
      <path
         d="m 45.315,71.927 h 12.92 v 15.867 h -12.92 z"
         id="path184"
         inkscape:connector-curvature="0" />
    </clipPath>
    <clipPath
       id="clp21">
      <path
         d="m 123.91,72.178 h 26.23 v 15.294 h -26.23 z"
         id="path592"
         inkscape:connector-curvature="0" />
    </clipPath>
    <clipPath
       id="clp9">
      <path
         d="m 413.96,49.857 h 31.76 v 8.719 h -31.76 z"
         id="path100"
         inkscape:connector-curvature="0" />
    </clipPath>
    <inkscape:perspective
       sodipodi:type="inkscape:persp3d"
       inkscape:vp_x="0 : 143.6312 : 1"
       inkscape:vp_y="0 : 999.99988 : 0"
       inkscape:vp_z="1500 : 143.6312 : 1"
       inkscape:persp3d-origin="749.99996 : -150.41423 : 1"
       id="perspective4362-5" />
    <clipPath
       id="clp12-3">
      <path
         d="m 45.315,71.927 h 12.92 v 15.867 h -12.92 z"
         id="path184-5"
         inkscape:connector-curvature="0" />
    </clipPath>
    <clipPath
       id="clp21-6">
      <path
         d="m 123.91,72.178 h 26.23 v 15.294 h -26.23 z"
         id="path592-2"
         inkscape:connector-curvature="0" />
    </clipPath>
    <clipPath
       id="clp9-9">
      <path
         d="m 413.96,49.857 h 31.76 v 8.719 h -31.76 z"
         id="path100-1"
         inkscape:connector-curvature="0" />
    </clipPath>
    <inkscape:perspective
       sodipodi:type="inkscape:persp3d"
       inkscape:vp_x="0 : 389.7996 : 1"
       inkscape:vp_y="0 : 999.99992 : 0"
       inkscape:vp_z="1500 : 389.7996 : 1"
       inkscape:persp3d-origin="749.99998 : 95.754155 : 1"
       id="perspective4362-9" />
    <clipPath
       id="clp12-37">
      <path
         d="m 45.315,71.927 h 12.92 v 15.867 h -12.92 z"
         id="path184-4"
         inkscape:connector-curvature="0" />
    </clipPath>
    <clipPath
       id="clp21-5">
      <path
         d="m 123.91,72.178 h 26.23 v 15.294 h -26.23 z"
         id="path592-25"
         inkscape:connector-curvature="0" />
    </clipPath>
    <clipPath
       id="clp9-4">
      <path
         d="m 413.96,49.857 h 31.76 v 8.719 h -31.76 z"
         id="path100-7"
         inkscape:connector-curvature="0" />
    </clipPath>
    <inkscape:perspective
       sodipodi:type="inkscape:persp3d"
       inkscape:vp_x="0 : 389.7996 : 1"
       inkscape:vp_y="0 : 999.99992 : 0"
       inkscape:vp_z="1500 : 389.7996 : 1"
       inkscape:persp3d-origin="749.99998 : 95.754155 : 1"
       id="perspective4362-6" />
    <clipPath
       id="clp12-8">
      <path
         d="m 45.315,71.927 h 12.92 v 15.867 h -12.92 z"
         id="path184-9"
         inkscape:connector-curvature="0" />
    </clipPath>
    <clipPath
       id="clp21-2">
      <path
         d="m 123.91,72.178 h 26.23 v 15.294 h -26.23 z"
         id="path592-6"
         inkscape:connector-curvature="0" />
    </clipPath>
    <clipPath
       id="clp9-6">
      <path
         d="m 413.96,49.857 h 31.76 v 8.719 h -31.76 z"
         id="path100-4"
         inkscape:connector-curvature="0" />
    </clipPath>
    <inkscape:perspective
       sodipodi:type="inkscape:persp3d"
       inkscape:vp_x="0 : 389.7996 : 1"
       inkscape:vp_y="0 : 999.99992 : 0"
       inkscape:vp_z="1500 : 389.7996 : 1"
       inkscape:persp3d-origin="749.99998 : 95.754155 : 1"
       id="perspective4362-53" />
    <clipPath
       id="clp12-5">
      <path
         d="m 45.315,71.927 h 12.92 v 15.867 h -12.92 z"
         id="path184-6"
         inkscape:connector-curvature="0" />
    </clipPath>
    <clipPath
       id="clp21-29">
      <path
         d="m 123.91,72.178 h 26.23 v 15.294 h -26.23 z"
         id="path592-1"
         inkscape:connector-curvature="0" />
    </clipPath>
    <clipPath
       id="clp9-2">
      <path
         d="m 413.96,49.857 h 31.76 v 8.719 h -31.76 z"
         id="path100-70"
         inkscape:connector-curvature="0" />
    </clipPath>
    <inkscape:perspective
       sodipodi:type="inkscape:persp3d"
       inkscape:vp_x="0 : 389.7996 : 1"
       inkscape:vp_y="0 : 999.99992 : 0"
       inkscape:vp_z="1500 : 389.7996 : 1"
       inkscape:persp3d-origin="749.99998 : 95.754155 : 1"
       id="perspective4362-5356" />
    <clipPath
       id="clp12-2">
      <path
         d="m 45.315,71.927 h 12.92 v 15.867 h -12.92 z"
         id="path184-91"
         inkscape:connector-curvature="0" />
    </clipPath>
    <clipPath
       id="clp21-27">
      <path
         d="m 123.91,72.178 h 26.23 v 15.294 h -26.23 z"
         id="path592-0"
         inkscape:connector-curvature="0" />
    </clipPath>
    <clipPath
       id="clp9-93">
      <path
         d="m 413.96,49.857 h 31.76 v 8.719 h -31.76 z"
         id="path100-6"
         inkscape:connector-curvature="0" />
    </clipPath>
    <inkscape:perspective
       sodipodi:type="inkscape:persp3d"
       inkscape:vp_x="0 : 143.6312 : 1"
       inkscape:vp_y="0 : 999.99988 : 0"
       inkscape:vp_z="1500 : 143.6312 : 1"
       inkscape:persp3d-origin="749.99996 : -150.41423 : 1"
       id="perspective4362-535" />
    <clipPath
       id="clp12-6">
      <path
         d="m 45.315,71.927 h 12.92 v 15.867 h -12.92 z"
         id="path184-2"
         inkscape:connector-curvature="0" />
    </clipPath>
    <clipPath
       id="clp21-9">
      <path
         d="m 123.91,72.178 h 26.23 v 15.294 h -26.23 z"
         id="path592-12"
         inkscape:connector-curvature="0" />
    </clipPath>
    <clipPath
       id="clp9-7">
      <path
         d="m 413.96,49.857 h 31.76 v 8.719 h -31.76 z"
         id="path100-0"
         inkscape:connector-curvature="0" />
    </clipPath>
    <inkscape:perspective
       sodipodi:type="inkscape:persp3d"
       inkscape:vp_x="0 : 143.6312 : 1"
       inkscape:vp_y="0 : 999.99988 : 0"
       inkscape:vp_z="1500 : 143.6312 : 1"
       inkscape:persp3d-origin="749.99996 : -150.41423 : 1"
       id="perspective4362-5-0" />
    <clipPath
       id="clp12-3-6">
      <path
         d="m 45.315,71.927 h 12.92 v 15.867 h -12.92 z"
         id="path184-5-2"
         inkscape:connector-curvature="0" />
    </clipPath>
    <clipPath
       id="clp21-6-6">
      <path
         d="m 123.91,72.178 h 26.23 v 15.294 h -26.23 z"
         id="path592-2-1"
         inkscape:connector-curvature="0" />
    </clipPath>
    <clipPath
       id="clp9-9-8">
      <path
         d="m 413.96,49.857 h 31.76 v 8.719 h -31.76 z"
         id="path100-1-7"
         inkscape:connector-curvature="0" />
    </clipPath>
    <inkscape:perspective
       sodipodi:type="inkscape:persp3d"
       inkscape:vp_x="0 : 389.7996 : 1"
       inkscape:vp_y="0 : 999.99992 : 0"
       inkscape:vp_z="1500 : 389.7996 : 1"
       inkscape:persp3d-origin="749.99998 : 95.754155 : 1"
       id="perspective4362-9-9" />
    <clipPath
       id="clp12-37-2">
      <path
         d="m 45.315,71.927 h 12.92 v 15.867 h -12.92 z"
         id="path184-4-0"
         inkscape:connector-curvature="0" />
    </clipPath>
    <clipPath
       id="clp21-5-2">
      <path
         d="m 123.91,72.178 h 26.23 v 15.294 h -26.23 z"
         id="path592-25-3"
         inkscape:connector-curvature="0" />
    </clipPath>
    <clipPath
       id="clp9-4-7">
      <path
         d="m 413.96,49.857 h 31.76 v 8.719 h -31.76 z"
         id="path100-7-5"
         inkscape:connector-curvature="0" />
    </clipPath>
    <inkscape:perspective
       sodipodi:type="inkscape:persp3d"
       inkscape:vp_x="0 : 389.7996 : 1"
       inkscape:vp_y="0 : 999.99992 : 0"
       inkscape:vp_z="1500 : 389.7996 : 1"
       inkscape:persp3d-origin="749.99998 : 95.754155 : 1"
       id="perspective4362-6-9" />
    <clipPath
       id="clp12-8-2">
      <path
         d="m 45.315,71.927 h 12.92 v 15.867 h -12.92 z"
         id="path184-9-2"
         inkscape:connector-curvature="0" />
    </clipPath>
    <clipPath
       id="clp21-2-8">
      <path
         d="m 123.91,72.178 h 26.23 v 15.294 h -26.23 z"
         id="path592-6-9"
         inkscape:connector-curvature="0" />
    </clipPath>
    <clipPath
       id="clp9-6-7">
      <path
         d="m 413.96,49.857 h 31.76 v 8.719 h -31.76 z"
         id="path100-4-3"
         inkscape:connector-curvature="0" />
    </clipPath>
    <inkscape:perspective
       sodipodi:type="inkscape:persp3d"
       inkscape:vp_x="0 : 389.7996 : 1"
       inkscape:vp_y="0 : 999.99992 : 0"
       inkscape:vp_z="1500 : 389.7996 : 1"
       inkscape:persp3d-origin="749.99998 : 95.754155 : 1"
       id="perspective4362-53-6" />
    <clipPath
       id="clp12-5-1">
      <path
         d="m 45.315,71.927 h 12.92 v 15.867 h -12.92 z"
         id="path184-6-2"
         inkscape:connector-curvature="0" />
    </clipPath>
    <clipPath
       id="clp21-29-9">
      <path
         d="m 123.91,72.178 h 26.23 v 15.294 h -26.23 z"
         id="path592-1-3"
         inkscape:connector-curvature="0" />
    </clipPath>
    <clipPath
       id="clp9-2-1">
      <path
         d="m 413.96,49.857 h 31.76 v 8.719 h -31.76 z"
         id="path100-70-9"
         inkscape:connector-curvature="0" />
    </clipPath>
    <marker
       viewBox="0 0 10 10"
       refY="5"
       refX="0"
       orient="auto"
       markerWidth="4"
       markerUnits="strokeWidth"
       markerHeight="3"
       id="ArrowEnd">
      <path
         id="path1612"
         d="M 0,0 10,5 0,10 Z" />
    </marker>
    <marker
       viewBox="0 0 10 10"
       refY="5"
       refX="10"
       orient="auto"
       markerWidth="4"
       markerUnits="strokeWidth"
       markerHeight="3"
       id="ArrowStart">
      <path
         id="path1614"
         d="M 10,0 0,5 10,10 Z" />
    </marker>
  </defs>
  <g
     inkscape:label="Layer 1"
     inkscape:groupmode="layer"
     id="layer1"
     transform="translate(399.11018,97.971873)">
    <path
       sodipodi:type="star"
       style="fill:#ffffff;fill-opacity:1;stroke:#000000;stroke-width:73.9932;stroke-miterlimit:4;stroke-dasharray:none;stroke-opacity:1"
       id="path4560"
       sodipodi:sides="6"
       sodipodi:cx="-5551.2134"
       sodipodi:cy="-204.52565"
       sodipodi:r1="1701.6108"
       sodipodi:r2="1473.6381"
       sodipodi:arg1="1.0471976"
       sodipodi:arg2="1.5707963"
       inkscape:flatsided="true"
       inkscape:rounded="0"
       inkscape:randomized="0"
       inkscape:transform-center-x="1.5731476e-05"
       inkscape:transform-center-y="7.9344316e-05"
       transform="matrix(0,0.01457052,-0.01454011,0,-380.11921,8.328)"
       d="m -4700.408,1269.1126 -1701.6109,-10e-5 -850.8053,-1473.63823 850.8055,-1473.63817 1701.6108,10e-5 850.8054,1473.63823 z" />
    <text
       xml:space="preserve"
       style="font-size:4.23333px;font-family:sans-serif;-inkscape-font-specification:sans-serif;fill:#fdf0e3;fill-opacity:1;stroke:#4a280d;stroke-width:15;stroke-linecap:round;stroke-linejoin:round;stroke-miterlimit:4;stroke-dasharray:none"
       x="-371.06778"
       y="-79.933144"
       id="text265343"><tspan
         sodipodi:role="line"
         id="tspan265341"
         style="stroke-width:15;stroke-miterlimit:4;stroke-dasharray:none"
         x="-371.06778"
         y="-79.933144" /></text>
    <text
       xml:space="preserve"
       style="font-size:4.23333px;font-family:sans-serif;-inkscape-font-specification:sans-serif;fill:#fdf0e3;fill-opacity:1;stroke:#4a280d;stroke-width:15;stroke-linecap:round;stroke-linejoin:round;stroke-miterlimit:4;stroke-dasharray:none"
       x="-371.52905"
       y="-81.552299"
       id="text268683"><tspan
         sodipodi:role="line"
         id="tspan268681"
         style="stroke-width:15"
         x="-371.52905"
         y="-81.552299" /></text>
    <text
       xml:space="preserve"
       style="font-size:4.23333px;font-family:sans-serif;-inkscape-font-specification:sans-serif;fill:#fdf0e3;fill-opacity:1;stroke:#4a280d;stroke-width:5;stroke-linecap:round;stroke-linejoin:round;stroke-miterlimit:4;stroke-dasharray:none"
       x="-343.72772"
       y="-72.713547"
       id="text270271"><tspan
         sodipodi:role="line"
         id="tspan270269"
         style="stroke-width:5;stroke-miterlimit:4;stroke-dasharray:none"
         x="-343.72772"
         y="-72.713547" /></text>
    <text
       xml:space="preserve"
       style="font-size:4.23333px;font-family:sans-serif;-inkscape-font-specification:sans-serif;fill:#fdf0e3;fill-opacity:1;stroke:#4a280d;stroke-width:4.99999;stroke-linecap:round;stroke-linejoin:round;stroke-miterlimit:4;stroke-dasharray:none"
       x="-340.94247"
       y="-70.223923"
       id="text275393"><tspan
         sodipodi:role="line"
         id="tspan275391"
         style="stroke-width:5"
         x="-340.94247"
         y="-70.223923" /></text>
    <text
       xml:space="preserve"
       style="font-size:4.23333px;font-family:sans-serif;-inkscape-font-specification:sans-serif;fill:#fdf0e3;fill-opacity:1;stroke:#4a280d;stroke-width:15;stroke-linecap:round;stroke-linejoin:round;stroke-miterlimit:4;stroke-dasharray:none"
       x="-320.80298"
       y="-79.505295"
       id="text265343-7"><tspan
         sodipodi:role="line"
         id="tspan265341-8"
         style="stroke-width:15;stroke-miterlimit:4;stroke-dasharray:none"
         x="-320.80298"
         y="-79.505295" /></text>
    <text
       xml:space="preserve"
       style="font-size:4.23333px;font-family:sans-serif;-inkscape-font-specification:sans-serif;fill:#fdf0e3;fill-opacity:1;stroke:#4a280d;stroke-width:15;stroke-linecap:round;stroke-linejoin:round;stroke-miterlimit:4;stroke-dasharray:none"
       x="-321.26425"
       y="-81.124435"
       id="text268683-6"><tspan
         sodipodi:role="line"
         id="tspan268681-8"
         style="stroke-width:15"
         x="-321.26425"
         y="-81.124435" /></text>
    <text
       xml:space="preserve"
       style="font-size:4.23333px;font-family:sans-serif;-inkscape-font-specification:sans-serif;fill:#fdf0e3;fill-opacity:1;stroke:#4a280d;stroke-width:5;stroke-linecap:round;stroke-linejoin:round;stroke-miterlimit:4;stroke-dasharray:none"
       x="-293.46292"
       y="-72.28569"
       id="text270271-8"><tspan
         sodipodi:role="line"
         id="tspan270269-4"
         style="stroke-width:5;stroke-miterlimit:4;stroke-dasharray:none"
         x="-293.46292"
         y="-72.28569" /></text>
    <text
       xml:space="preserve"
       style="font-size:4.23333px;font-family:sans-serif;-inkscape-font-specification:sans-serif;fill:#fdf0e3;fill-opacity:1;stroke:#4a280d;stroke-width:4.99999;stroke-linecap:round;stroke-linejoin:round;stroke-miterlimit:4;stroke-dasharray:none"
       x="-290.67767"
       y="-69.796066"
       id="text275393-3"><tspan
         sodipodi:role="line"
         id="tspan275391-1"
         style="stroke-width:5"
         x="-290.67767"
         y="-69.796066" /></text>
    <path
       d="m -431.29792,-32.105285 v 93.400372 h 132.29167 v -93.400372 z"
       style="fill:#ffffff;fill-opacity:1;stroke-width:0.306231"
       id="White" />
    <path
       d="m -393.10997,-65.889902 0.69212,0.219453 q -0.15917,0.578777 -0.53055,0.860931 -0.36897,0.279742 -0.9381,0.279742 -0.70418,0 -1.15756,-0.479903 -0.45337,-0.482314 -0.45337,-1.316718 0,-0.882635 0.45579,-1.369773 0.45578,-0.489549 1.19855,-0.489549 0.64871,0 1.05385,0.38344 0.24116,0.226688 0.36174,0.651124 l -0.70659,0.16881 q -0.0627,-0.274919 -0.26286,-0.434083 -0.19775,-0.159163 -0.48232,-0.159163 -0.39308,0 -0.63906,0.282153 -0.24357,0.282154 -0.24357,0.913986 0,0.670417 0.24116,0.954983 0.24115,0.284566 0.627,0.284566 0.28457,0 0.48955,-0.180868 0.20499,-0.180868 0.29422,-0.569131 z"
       style="font-weight:bold;font-size:4.9389px;font-family:Arial;-inkscape-font-specification:'Arial Bold';stroke:none;stroke-width:0.759999;stroke-linecap:round;stroke-linejoin:round"
       id="path1126" />
    <path
       d="m -391.80531,-64.590065 v -3.535365 h 1.14549 q 0.65113,0 0.84888,0.05306 0.30385,0.07958 0.50884,0.347266 0.20498,0.265273 0.20498,0.687298 0,0.325562 -0.11817,0.547427 -0.11816,0.221865 -0.30144,0.349678 -0.18087,0.125402 -0.36897,0.166399 -0.25563,0.05064 -0.74036,0.05064 h -0.46543 v 1.333599 z m 0.71382,-2.937295 v 1.003214 h 0.39068 q 0.42202,0 0.5643,-0.05547 0.14229,-0.05547 0.22187,-0.173633 0.082,-0.118167 0.082,-0.27492 0,-0.192925 -0.11334,-0.318327 -0.11335,-0.125402 -0.28698,-0.156752 -0.12781,-0.02412 -0.51366,-0.02412 z"
       style="font-weight:bold;font-size:4.9389px;font-family:Arial;-inkscape-font-specification:'Arial Bold';stroke:none;stroke-width:0.759999;stroke-linecap:round;stroke-linejoin:round"
       id="path1128" />
    <path
       d="m -388.51111,-64.590065 v -3.535365 h 1.1455 q 0.65113,0 0.84887,0.05306 0.30386,0.07958 0.50885,0.347266 0.20498,0.265273 0.20498,0.687298 0,0.325562 -0.11817,0.547427 -0.11816,0.221865 -0.30144,0.349678 -0.18087,0.125402 -0.36897,0.166399 -0.25563,0.05064 -0.74036,0.05064 h -0.46543 v 1.333599 z m 0.71383,-2.937295 v 1.003214 h 0.39067 q 0.42203,0 0.56431,-0.05547 0.14228,-0.05547 0.22187,-0.173633 0.082,-0.118167 0.082,-0.27492 0,-0.192925 -0.11334,-0.318327 -0.11335,-0.125402 -0.28698,-0.156752 -0.12781,-0.02412 -0.51367,-0.02412 z"
       style="font-weight:bold;font-size:4.9389px;font-family:Arial;-inkscape-font-specification:'Arial Bold';stroke:none;stroke-width:0.759999;stroke-linecap:round;stroke-linejoin:round"
       id="path1130" />
    <path
       d="m -383.6325,-64.590065 h -0.67765 v -2.553855 q -0.37138,0.347266 -0.8754,0.513665 v -0.614951 q 0.26528,-0.08682 0.57637,-0.327974 0.31109,-0.243569 0.42685,-0.566719 h 0.54983 z"
       style="font-weight:bold;font-size:4.9389px;font-family:Arial;-inkscape-font-specification:'Arial Bold';stroke:none;stroke-width:0.759999;stroke-linecap:round;stroke-linejoin:round"
       id="path1132" />
    <path
       d="m -381.15822,-64.590065 h -0.67765 v -2.553855 q -0.37139,0.347266 -0.8754,0.513665 v -0.614951 q 0.26527,-0.08682 0.57636,-0.327974 0.31109,-0.243569 0.42685,-0.566719 h 0.54984 z"
       style="font-weight:bold;font-size:4.9389px;font-family:Arial;-inkscape-font-specification:'Arial Bold';stroke:none;stroke-width:0.759999;stroke-linecap:round;stroke-linejoin:round"
       id="path1134" />
    <path
       d="m -378.72012,-68.12543 h 0.71141 v 2.237939 q 0,0.438906 -0.0772,0.67524 -0.1037,0.308682 -0.3762,0.496784 -0.27251,0.185691 -0.71865,0.185691 -0.52331,0 -0.80547,-0.2918 -0.28215,-0.294212 -0.28456,-0.860931 l 0.67283,-0.07717 q 0.0121,0.303859 0.0892,0.42926 0.11576,0.190515 0.35209,0.190515 0.23875,0 0.33762,-0.135049 0.0989,-0.137459 0.0989,-0.566719 z"
       style="font-weight:bold;font-size:4.9389px;font-family:Arial;-inkscape-font-specification:'Arial Bold';stroke:none;stroke-width:0.759999;stroke-linecap:round;stroke-linejoin:round"
       id="path1136" />
    <path
       d="m -374.06096,-64.590065 h -0.77653 l -0.30868,-0.803054 h -1.41318 l -0.2918,0.803054 h -0.75724 l 1.37701,-3.535365 h 0.75482 z m -1.31431,-1.398712 -0.48714,-1.311895 -0.47749,1.311895 z"
       style="font-weight:bold;font-size:4.9389px;font-family:Arial;-inkscape-font-specification:'Arial Bold';stroke:none;stroke-width:0.759999;stroke-linecap:round;stroke-linejoin:round"
       id="path1138" />
    <path
       d="m -373.67511,-64.590065 v -3.535365 h 0.69453 l 1.44694,2.360929 v -2.360929 h 0.66319 v 3.535365 h -0.71624 l -1.42524,-2.305463 v 2.305463 z"
       style="font-weight:bold;font-size:4.9389px;font-family:Arial;-inkscape-font-specification:'Arial Bold';stroke:none;stroke-width:0.759999;stroke-linecap:round;stroke-linejoin:round"
       id="path1140" />
    <path
       d="m -370.13734,-64.590065 v -3.535365 h 0.71383 v 3.535365 z"
       style="font-weight:bold;font-size:4.9389px;font-family:Arial;-inkscape-font-specification:'Arial Bold';stroke:none;stroke-width:0.759999;stroke-linecap:round;stroke-linejoin:round"
       id="path1142" />
    <path
       d="m -367.94763,-64.590065 v -2.937295 h -1.04903 v -0.59807 h 2.80948 v 0.59807 h -1.04662 v 2.937295 z"
       style="font-weight:bold;font-size:4.9389px;font-family:Arial;-inkscape-font-specification:'Arial Bold';stroke:none;stroke-width:0.759999;stroke-linecap:round;stroke-linejoin:round"
       id="path1144" />
    <path
       d="m -365.96049,-66.336043 q 0,-0.540193 0.16157,-0.906751 0.12058,-0.270097 0.32798,-0.484727 0.2098,-0.214629 0.45819,-0.318327 0.33039,-0.139871 0.76206,-0.139871 0.78135,0 1.2492,0.484726 0.47025,0.484726 0.47025,1.348069 0,0.856108 -0.46543,1.340834 -0.46543,0.482314 -1.24437,0.482314 -0.78859,0 -1.25402,-0.479903 -0.46543,-0.482314 -0.46543,-1.326364 z m 0.73553,-0.02412 q 0,0.600481 0.27733,0.911574 0.27733,0.308682 0.70418,0.308682 0.42684,0 0.69935,-0.30627 0.27492,-0.308681 0.27492,-0.923632 0,-0.607717 -0.26768,-0.906752 -0.26528,-0.299034 -0.70659,-0.299034 -0.44132,0 -0.71142,0.303858 -0.27009,0.301446 -0.27009,0.911574 z"
       style="font-weight:bold;font-size:4.9389px;font-family:Arial;-inkscape-font-specification:'Arial Bold';stroke:none;stroke-width:0.759999;stroke-linecap:round;stroke-linejoin:round"
       id="path1146" />
    <path
       d="m -361.97175,-64.590065 v -3.535365 h 1.50241 q 0.56672,0 0.82234,0.09646 0.25804,0.09405 0.41238,0.33762 0.15434,0.243569 0.15434,0.557073 0,0.39791 -0.23392,0.658359 -0.23392,0.258039 -0.69936,0.325563 0.23151,0.135048 0.38103,0.296623 0.15193,0.161575 0.40756,0.573954 l 0.43167,0.68971 h -0.8537 l -0.51607,-0.769292 q -0.27492,-0.412378 -0.37621,-0.518488 -0.10128,-0.10852 -0.21463,-0.147105 -0.11334,-0.041 -0.35932,-0.041 h -0.1447 v 1.475882 z m 0.71382,-2.04019 h 0.52814 q 0.51366,0 0.64148,-0.04341 0.12781,-0.04341 0.20016,-0.149518 0.0723,-0.106109 0.0723,-0.265273 0,-0.178456 -0.0965,-0.286977 -0.0941,-0.110932 -0.26768,-0.139871 -0.0868,-0.01206 -0.5209,-0.01206 h -0.55708 z"
       style="font-weight:bold;font-size:4.9389px;font-family:Arial;-inkscape-font-specification:'Arial Bold';stroke:none;stroke-width:0.759999;stroke-linecap:round;stroke-linejoin:round"
       id="path1148" />
    <rect
       style="fill:#000000;fill-opacity:1;stroke:none;stroke-width:0.76;stroke-linecap:round;stroke-linejoin:round"
       id="rect63638"
       width="42.853729"
       height="12.39666"
       x="-398.57224"
       y="-84.952751" />
    <path
       style="fill:#d2232a;stroke:#ffffff;stroke-width:0.404185;stroke-miterlimit:4;stroke-dasharray:none;stroke-opacity:1"
       d="m -377.61431,-82.411971 c -2.73594,0.0705 -5.543,0.362687 -8.05604,1.503842 -0.83052,0.414927 -1.78875,0.992678 -1.96171,1.981447 -0.0998,0.956413 0.73967,1.657823 1.4909,2.083012 2.00097,1.086401 4.31139,1.43867 6.55482,1.659597 3.39519,0.228085 6.89393,0.07058 10.12477,-1.056608 1.02261,-0.407056 2.1714,-0.901319 2.686,-1.932104 0.35947,-0.75112 -0.10435,-1.59192 -0.72035,-2.042626 -1.42874,-1.082837 -3.23807,-1.501298 -4.97532,-1.823561 -1.69609,-0.28992 -3.42147,-0.393763 -5.14307,-0.372999 z"
       id="Red" />
    <g
       aria-label="TIDY STRINGS"
       id="text36609"
       style="font-size:2.57289px;font-family:'Ubuntu Condensed';-inkscape-font-specification:'Ubuntu Condensed, ';fill:#ffffff;stroke-width:0.395917;stroke-linecap:round;stroke-linejoin:round">
      <path
         d="m -385.49092,-77.834183 v -1.530166 h -0.54648 v -0.311561 h 1.46358 v 0.311561 h -0.54523 v 1.530166 z"
         style="font-weight:bold;font-family:Arial;-inkscape-font-specification:'Arial Bold';stroke-width:0.395916"
         id="path1085" />
      <path
         d="m -384.34518,-77.834183 v -1.841727 h 0.37187 v 1.841727 z"
         style="font-weight:bold;font-family:Arial;-inkscape-font-specification:'Arial Bold';stroke-width:0.395916"
         id="path1087" />
      <path
         d="m -383.6203,-79.67591 h 0.67966 q 0.2299,0 0.35051,0.03518 0.16206,0.04774 0.27764,0.169599 0.11558,0.121861 0.17588,0.298998 0.0603,0.175881 0.0603,0.434678 0,0.227389 -0.0565,0.391964 -0.0691,0.201007 -0.19724,0.32538 -0.0967,0.09422 -0.26131,0.146986 -0.12312,0.03894 -0.32915,0.03894 h -0.69976 z m 0.37187,0.311561 v 1.219862 h 0.27764 q 0.15578,0 0.22488,-0.01759 0.0904,-0.02261 0.14949,-0.07663 0.0603,-0.05402 0.098,-0.177138 0.0377,-0.124373 0.0377,-0.337943 0,-0.21357 -0.0377,-0.327893 -0.0377,-0.114322 -0.10553,-0.178393 -0.0678,-0.06407 -0.17212,-0.08669 -0.0779,-0.01759 -0.30528,-0.01759 z"
         style="font-weight:bold;font-family:Arial;-inkscape-font-specification:'Arial Bold';stroke-width:0.395916"
         id="path1089" />
      <path
         d="m -381.27731,-77.834183 v -0.775133 l -0.67463,-1.066594 h 0.43594 l 0.43342,0.728651 0.42463,-0.728651 h 0.42839 l -0.67714,1.069106 v 0.772621 z"
         style="font-weight:bold;font-family:Arial;-inkscape-font-specification:'Arial Bold';stroke-width:0.395916"
         id="path1091" />
      <path
         d="m -379.47076,-78.433435 0.36182,-0.03518 q 0.0327,0.182162 0.13191,0.26759 0.1005,0.08543 0.2701,0.08543 0.17965,0 0.2701,-0.07538 0.0917,-0.07663 0.0917,-0.178394 0,-0.06533 -0.0389,-0.110554 -0.0377,-0.04648 -0.13317,-0.0804 -0.0653,-0.02261 -0.29774,-0.0804 -0.299,-0.07412 -0.4196,-0.182163 -0.1696,-0.152012 -0.1696,-0.370607 0,-0.140705 0.0791,-0.262565 0.0804,-0.123117 0.22991,-0.187188 0.15075,-0.06407 0.36306,-0.06407 0.34674,0 0.52137,0.152012 0.17588,0.152011 0.18467,0.405782 l -0.37186,0.01633 q -0.0239,-0.141961 -0.10302,-0.203519 -0.0779,-0.06282 -0.23492,-0.06282 -0.16207,0 -0.25378,0.06658 -0.059,0.04271 -0.059,0.114322 0,0.06533 0.0553,0.11181 0.0704,0.05905 0.34171,0.123117 0.27136,0.06407 0.40076,0.133167 0.13065,0.06784 0.20351,0.187188 0.0741,0.118092 0.0741,0.292717 0,0.158293 -0.0879,0.296485 -0.0879,0.138192 -0.24875,0.206032 -0.16081,0.06658 -0.40076,0.06658 -0.34925,0 -0.53644,-0.160806 -0.18718,-0.162062 -0.22362,-0.47111 z"
         style="font-weight:bold;font-family:Arial;-inkscape-font-specification:'Arial Bold';stroke-width:0.395916"
         id="path1093" />
      <path
         d="m -377.24586,-77.834183 v -1.530166 h -0.54649 v -0.311561 h 1.46358 v 0.311561 h -0.54523 v 1.530166 z"
         style="font-weight:bold;font-family:Arial;-inkscape-font-specification:'Arial Bold';stroke-width:0.395916"
         id="path1095" />
      <path
         d="m -376.08756,-77.834183 v -1.841727 h 0.78267 q 0.29523,0 0.4284,0.05025 0.13442,0.049 0.21483,0.175881 0.0804,0.126886 0.0804,0.290204 0,0.207289 -0.12186,0.342968 -0.12186,0.134424 -0.36433,0.1696 0.12061,0.07035 0.1985,0.154524 0.0791,0.08417 0.21231,0.298998 l 0.22488,0.3593 h -0.44473 l -0.26885,-0.400758 q -0.14321,-0.214826 -0.19598,-0.270103 -0.0528,-0.05653 -0.11181,-0.07663 -0.059,-0.02136 -0.18719,-0.02136 h -0.0754 v 0.768852 z m 0.37187,-1.062824 h 0.27512 q 0.2676,0 0.33418,-0.02261 0.0666,-0.02261 0.10427,-0.07789 0.0377,-0.05528 0.0377,-0.138192 0,-0.09297 -0.0503,-0.149499 -0.049,-0.05779 -0.13945,-0.07287 -0.0452,-0.0063 -0.27136,-0.0063 h -0.2902 z"
         style="font-weight:bold;font-family:Arial;-inkscape-font-specification:'Arial Bold';stroke-width:0.395916"
         id="path1097" />
      <path
         d="m -374.24206,-77.834183 v -1.841727 h 0.37186 v 1.841727 z"
         style="font-weight:bold;font-family:Arial;-inkscape-font-specification:'Arial Bold';stroke-width:0.395916"
         id="path1099" />
      <path
         d="m -373.51215,-77.834183 v -1.841727 h 0.36181 l 0.75378,1.229912 v -1.229912 h 0.34548 v 1.841727 h -0.37312 l -0.74247,-1.201017 v 1.201017 z"
         style="font-weight:bold;font-family:Arial;-inkscape-font-specification:'Arial Bold';stroke-width:0.395916"
         id="path1101" />
      <path
         d="m -370.80107,-78.511325 v -0.310305 h 0.80151 v 0.733676 q -0.11683,0.113066 -0.3392,0.199751 -0.2211,0.08543 -0.44849,0.08543 -0.28895,0 -0.50378,-0.120605 -0.21482,-0.12186 -0.32286,-0.346737 -0.10804,-0.226133 -0.10804,-0.491211 0,-0.287691 0.1206,-0.511311 0.1206,-0.223621 0.35302,-0.342969 0.17714,-0.09171 0.44096,-0.09171 0.34297,0 0.53518,0.144474 0.19347,0.143217 0.24874,0.396989 l -0.36935,0.0691 q -0.0389,-0.13568 -0.14698,-0.21357 -0.10679,-0.07915 -0.26759,-0.07915 -0.24372,0 -0.3882,0.154524 -0.14322,0.154525 -0.14322,0.458548 0,0.327893 0.14573,0.492467 0.14573,0.163318 0.38192,0.163318 0.11683,0 0.23367,-0.04523 0.11809,-0.04648 0.20226,-0.111811 v -0.23367 z"
         style="font-weight:bold;font-family:Arial;-inkscape-font-specification:'Arial Bold';stroke-width:0.395916"
         id="path1103" />
      <path
         d="m -369.75081,-78.433435 0.36181,-0.03518 q 0.0327,0.182162 0.13191,0.26759 0.10051,0.08543 0.27011,0.08543 0.17965,0 0.2701,-0.07538 0.0917,-0.07663 0.0917,-0.178394 0,-0.06533 -0.0389,-0.110554 -0.0377,-0.04648 -0.13317,-0.0804 -0.0653,-0.02261 -0.29774,-0.0804 -0.299,-0.07412 -0.41961,-0.182163 -0.1696,-0.152012 -0.1696,-0.370607 0,-0.140705 0.0792,-0.262565 0.0804,-0.123117 0.2299,-0.187188 0.15076,-0.06407 0.36307,-0.06407 0.34674,0 0.52136,0.152012 0.17588,0.152011 0.18468,0.405782 l -0.37186,0.01633 q -0.0239,-0.141961 -0.10302,-0.203519 -0.0779,-0.06282 -0.23493,-0.06282 -0.16206,0 -0.25377,0.06658 -0.059,0.04271 -0.059,0.114322 0,0.06533 0.0553,0.11181 0.0704,0.05905 0.34171,0.123117 0.27136,0.06407 0.40076,0.133167 0.13066,0.06784 0.20352,0.187188 0.0741,0.118092 0.0741,0.292717 0,0.158293 -0.0879,0.296485 -0.0879,0.138192 -0.24874,0.206032 -0.16081,0.06658 -0.40076,0.06658 -0.34925,0 -0.53644,-0.160806 -0.18719,-0.162062 -0.22362,-0.47111 z"
         style="font-weight:bold;font-family:Arial;-inkscape-font-specification:'Arial Bold';stroke-width:0.395916"
         id="path1105" />
    </g>
  </g>
  <style
     type="text/css"
     id="style9">
	.st0{fill:#FEEEED;}
	.st1{fill:#B5A99C;}
	.st2{fill:#6C5C48;}
	.st3{fill:none;stroke:#4A280C;stroke-width:8.2303;stroke-linecap:round;stroke-linejoin:round;stroke-miterlimit:10;}
	.st4{fill:#FFA3B9;}
	.st5{fill:#FFD999;}
	.st6{fill:#F4769D;}
	.st7{fill:#BCE6DD;}
	.st8{fill:#4A280C;}
</style>
  <style
     type="text/css"
     id="style10296">
	.st0{fill:#75AADB;}
	.st1{fill:#4D4D4D;}
	.st2{fill:#FFFFFF;}
	.st3{fill:url(#SVGID_1_);}
	.st4{fill:url(#SVGID_2_);}
	.st5{fill:url(#SVGID_3_);}
	.st6{fill:url(#SVGID_4_);}
	.st7{fill:url(#SVGID_5_);}
	.st8{fill:url(#SVGID_6_);}
	.st9{fill:url(#SVGID_7_);}
	.st10{fill:url(#SVGID_8_);}
	.st11{fill:url(#SVGID_9_);}
	.st12{fill:url(#SVGID_10_);}
	.st13{opacity:0.18;fill:url(#SVGID_11_);}
	.st14{opacity:0.3;}
</style>
  <style
     type="text/css"
     id="style10296-7">
	.st0{fill:#75AADB;}
	.st1{fill:#4D4D4D;}
	.st2{fill:#FFFFFF;}
	.st3{fill:url(#SVGID_1_);}
	.st4{fill:url(#SVGID_2_);}
	.st5{fill:url(#SVGID_3_);}
	.st6{fill:url(#SVGID_4_);}
	.st7{fill:url(#SVGID_5_);}
	.st8{fill:url(#SVGID_6_);}
	.st9{fill:url(#SVGID_7_);}
	.st10{fill:url(#SVGID_8_);}
	.st11{fill:url(#SVGID_9_);}
	.st12{fill:url(#SVGID_10_);}
	.st13{opacity:0.18;fill:url(#SVGID_11_);}
	.st14{opacity:0.3;}
</style>
  <style
     type="text/css"
     id="style10296-4">
	.st0{fill:#75AADB;}
	.st1{fill:#4D4D4D;}
	.st2{fill:#FFFFFF;}
	.st3{fill:url(#SVGID_1_);}
	.st4{fill:url(#SVGID_2_);}
	.st5{fill:url(#SVGID_3_);}
	.st6{fill:url(#SVGID_4_);}
	.st7{fill:url(#SVGID_5_);}
	.st8{fill:url(#SVGID_6_);}
	.st9{fill:url(#SVGID_7_);}
	.st10{fill:url(#SVGID_8_);}
	.st11{fill:url(#SVGID_9_);}
	.st12{fill:url(#SVGID_10_);}
	.st13{opacity:0.18;fill:url(#SVGID_11_);}
	.st14{opacity:0.3;}
</style>
  <style
     type="text/css"
     id="style10296-9">
	.st0{fill:#75AADB;}
	.st1{fill:#4D4D4D;}
	.st2{fill:#FFFFFF;}
	.st3{fill:url(#SVGID_1_);}
	.st4{fill:url(#SVGID_2_);}
	.st5{fill:url(#SVGID_3_);}
	.st6{fill:url(#SVGID_4_);}
	.st7{fill:url(#SVGID_5_);}
	.st8{fill:url(#SVGID_6_);}
	.st9{fill:url(#SVGID_7_);}
	.st10{fill:url(#SVGID_8_);}
	.st11{fill:url(#SVGID_9_);}
	.st12{fill:url(#SVGID_10_);}
	.st13{opacity:0.18;fill:url(#SVGID_11_);}
	.st14{opacity:0.3;}
</style>
  <style
     type="text/css"
     id="style10296-2">
	.st0{fill:#75AADB;}
	.st1{fill:#4D4D4D;}
	.st2{fill:#FFFFFF;}
	.st3{fill:url(#SVGID_1_);}
	.st4{fill:url(#SVGID_2_);}
	.st5{fill:url(#SVGID_3_);}
	.st6{fill:url(#SVGID_4_);}
	.st7{fill:url(#SVGID_5_);}
	.st8{fill:url(#SVGID_6_);}
	.st9{fill:url(#SVGID_7_);}
	.st10{fill:url(#SVGID_8_);}
	.st11{fill:url(#SVGID_9_);}
	.st12{fill:url(#SVGID_10_);}
	.st13{opacity:0.18;fill:url(#SVGID_11_);}
	.st14{opacity:0.3;}
</style>
  <style
     type="text/css"
     id="style10296-6">
	.st0{fill:#75AADB;}
	.st1{fill:#4D4D4D;}
	.st2{fill:#FFFFFF;}
	.st3{fill:url(#SVGID_1_);}
	.st4{fill:url(#SVGID_2_);}
	.st5{fill:url(#SVGID_3_);}
	.st6{fill:url(#SVGID_4_);}
	.st7{fill:url(#SVGID_5_);}
	.st8{fill:url(#SVGID_6_);}
	.st9{fill:url(#SVGID_7_);}
	.st10{fill:url(#SVGID_8_);}
	.st11{fill:url(#SVGID_9_);}
	.st12{fill:url(#SVGID_10_);}
	.st13{opacity:0.18;fill:url(#SVGID_11_);}
	.st14{opacity:0.3;}
</style>
  <style
     type="text/css"
     id="style10296-3">
	.st0{fill:#75AADB;}
	.st1{fill:#4D4D4D;}
	.st2{fill:#FFFFFF;}
	.st3{fill:url(#SVGID_1_);}
	.st4{fill:url(#SVGID_2_);}
	.st5{fill:url(#SVGID_3_);}
	.st6{fill:url(#SVGID_4_);}
	.st7{fill:url(#SVGID_5_);}
	.st8{fill:url(#SVGID_6_);}
	.st9{fill:url(#SVGID_7_);}
	.st10{fill:url(#SVGID_8_);}
	.st11{fill:url(#SVGID_9_);}
	.st12{fill:url(#SVGID_10_);}
	.st13{opacity:0.18;fill:url(#SVGID_11_);}
	.st14{opacity:0.3;}
</style>
  <style
     type="text/css"
     id="style10296-7-1">
	.st0{fill:#75AADB;}
	.st1{fill:#4D4D4D;}
	.st2{fill:#FFFFFF;}
	.st3{fill:url(#SVGID_1_);}
	.st4{fill:url(#SVGID_2_);}
	.st5{fill:url(#SVGID_3_);}
	.st6{fill:url(#SVGID_4_);}
	.st7{fill:url(#SVGID_5_);}
	.st8{fill:url(#SVGID_6_);}
	.st9{fill:url(#SVGID_7_);}
	.st10{fill:url(#SVGID_8_);}
	.st11{fill:url(#SVGID_9_);}
	.st12{fill:url(#SVGID_10_);}
	.st13{opacity:0.18;fill:url(#SVGID_11_);}
	.st14{opacity:0.3;}
</style>
  <style
     type="text/css"
     id="style10296-4-5">
	.st0{fill:#75AADB;}
	.st1{fill:#4D4D4D;}
	.st2{fill:#FFFFFF;}
	.st3{fill:url(#SVGID_1_);}
	.st4{fill:url(#SVGID_2_);}
	.st5{fill:url(#SVGID_3_);}
	.st6{fill:url(#SVGID_4_);}
	.st7{fill:url(#SVGID_5_);}
	.st8{fill:url(#SVGID_6_);}
	.st9{fill:url(#SVGID_7_);}
	.st10{fill:url(#SVGID_8_);}
	.st11{fill:url(#SVGID_9_);}
	.st12{fill:url(#SVGID_10_);}
	.st13{opacity:0.18;fill:url(#SVGID_11_);}
	.st14{opacity:0.3;}
</style>
  <style
     type="text/css"
     id="style10296-9-5">
	.st0{fill:#75AADB;}
	.st1{fill:#4D4D4D;}
	.st2{fill:#FFFFFF;}
	.st3{fill:url(#SVGID_1_);}
	.st4{fill:url(#SVGID_2_);}
	.st5{fill:url(#SVGID_3_);}
	.st6{fill:url(#SVGID_4_);}
	.st7{fill:url(#SVGID_5_);}
	.st8{fill:url(#SVGID_6_);}
	.st9{fill:url(#SVGID_7_);}
	.st10{fill:url(#SVGID_8_);}
	.st11{fill:url(#SVGID_9_);}
	.st12{fill:url(#SVGID_10_);}
	.st13{opacity:0.18;fill:url(#SVGID_11_);}
	.st14{opacity:0.3;}
</style>
  <style
     type="text/css"
     id="style10296-2-4">
	.st0{fill:#75AADB;}
	.st1{fill:#4D4D4D;}
	.st2{fill:#FFFFFF;}
	.st3{fill:url(#SVGID_1_);}
	.st4{fill:url(#SVGID_2_);}
	.st5{fill:url(#SVGID_3_);}
	.st6{fill:url(#SVGID_4_);}
	.st7{fill:url(#SVGID_5_);}
	.st8{fill:url(#SVGID_6_);}
	.st9{fill:url(#SVGID_7_);}
	.st10{fill:url(#SVGID_8_);}
	.st11{fill:url(#SVGID_9_);}
	.st12{fill:url(#SVGID_10_);}
	.st13{opacity:0.18;fill:url(#SVGID_11_);}
	.st14{opacity:0.3;}
</style>
</svg>
